<?xml version="1.0" encoding="utf-8"?>
<!-- Generator: Adobe Illustrator 16.0.0, SVG Export Plug-In . SVG Version: 6.00 Build 0)  -->
<!DOCTYPE svg PUBLIC "-//W3C//DTD SVG 1.1//EN" "http://www.w3.org/Graphics/SVG/1.1/DTD/svg11.dtd">
<svg version="1.1" id="Layer_1" xmlns="http://www.w3.org/2000/svg" xmlns:xlink="http://www.w3.org/1999/xlink" x="0px" y="0px"
	 width="300px" height="300px" viewBox="0 0 300 300" enable-background="new 0 0 300 300" xml:space="preserve">
<g>
	<path fill="#DD7472" d="M261.818,90.041c6.422-42.04-1.492-53.374-7.639-54.443c-1.027-5.737-6.418-24.565-30.574-10.885
		c-3.016,1.708-6.023,4.354-8.99,7.688c-56.877,6.646-88.768,110.26-88.768,110.26c-4.838,2.887-8.204,6.109-10.556,9.287
		c-6.076-5.927-29.006-25.772-53.914-14.916c-24.999,10.896-31.363,26.782-33.928,38.96c-3.137,14.911,3.206,22.435,17.949,19.873
		c13.852-2.41,37.033,0.278,50.686,13.9c-2.838,28.239,29.803,54.148,39.242,56.845c10.951,3.129,7.821,13.558,7.821,13.558
		l7.574-0.429c-0.643-14.745-7.692-19.555-11.54-20.192c-3.847-0.643-6.73-2.246-17.307-9.615
		c-24.822-17.306-21.475-53.848-21.475-53.848c-1.056,1.908-1.889,3.819-2.558,5.729c-4.8-3.523-22.023-14.2-52.442-12.359
		c-10.576,0.641-15.683-5.98-10.256-20.833c5.995-16.41,41.819-48.974,76.572-10.204c-2.342,6.089-1.573,10.845-1.573,10.845
		c6.41-16.345,19.871-21.795,19.871-21.795c4.486-15.063,27.885-68.27,47.756-88.461c13.699-13.918,25.721-18.699,31.867-20.328
		c-19.063,26.587-35.342,77.566-38.271,87.054c-10.555,1.662-16.764,9.445-16.764,9.445c3.113,1.438,29.232-8.386,29.232-8.386
		c-2.637-0.844-5.129-1.251-7.463-1.344c32.822-99.757,55.037-99.808,64.49-96.658c5.867,1.957,6.914,6.082,6.885,8.883
		c-24.855,15.411-39.361,77.65-41.934,89.543c-6.451,0.82-10.717,2.212-10.717,2.212c-3.834,1.678,2.875,1.917,10.063,1.438
		c7.188-0.481,14.377-4.074,14.377-4.074c-3.799-0.27-7.393-0.171-10.613,0.103c11.725-45.322,28.482-83.73,40.326-83.967
		c9.479-0.188,8.021,28.142,6.99,40.076c-0.84-0.734-1.693-1.393-2.576-1.89c-18.709-10.575-29.826,23.318-30.369,42.568
		c-0.225,7.98,0.346,14.303,1.088,19.002c-8.172,2.446-36.84,14.246-36.607,59.359l2.713,0.27c0,0-2.861-44.665,34.584-55.872
		c0.881,4.142,1.748,6.254,1.748,6.254s0.271,2.17,0.271-23.046c0-25.216,13.287-50.704,20.881-46.907
		c14.871,7.436,24.131,72.395,11.113,106.285c-13.016,33.895-54.77,61.008-54.77,61.008s8.408,16.541,10.303,15.185
		c1.9-1.354-1.625-11.93-1.625-11.93s34.162-22.238,51.248-59.382C278.59,162.702,274.566,111.795,261.818,90.041z"/>
</g>
<g>
	<path fill="#77D0E5" d="M-661.766,66.861c-17.621-16.901-48.19-8.992-48.19-8.992c-3.956-11.867-39.2-32.364-87.028-10.428
		c-52.333,24.001-40.277,53.583-33.086,62.934c7.192,9.351,4.675,13.665,0.72,24.813c-3.956,11.15-0.359,21.578,5.394,28.411
		c5.754,6.829,5.034,10.068,6.114,22.654c1.08,12.589,8.99,21.938,8.99,21.938l-32.005,19.063c-2.052,2.669,3.847,5.801,6.928,4.004
		c3.082-1.799,30.811-17.717,30.811-17.717c17.717,14.378,32.608,14.637,32.608,14.637c-31.581-14.637-40.311-34.664-40.311-48.271
		c0-13.606-5.134-17.201-8.986-23.619c-3.851-6.422-6.676-11.554-1.539-26.19c5.134-14.632,1.539-18.998-2.311-23.364
		c-3.852-4.364-7.446-11.042-5.905-17.459c6.487-27.028,50.067-47.5,84.728-42.108c34.661,5.392,31.061,29.024,26.958,36.205
		c-3.082,5.388-16.688,2.824-32.35,5.646c-45.448,8.197-48.269,21.564-48.269,21.564c5.649-4.62,26.447-14.891,50.581-18.484
		c24.134-3.596,49.038,1.283,46.473,21.826c-2.568,20.538-10.015,14.89-43.393,22.077c-33.377,7.19-37.486,19-37.486,19
		s13.866-9.499,40.824-14.122c26.959-4.621,39.281,4.363,40.053,17.458c0.77,13.097-8.73,23.107-8.73,23.107
		s-6.676-5.903-25.675-0.768c-28.739,7.768-28.499,14.89-28.499,14.89c9.244-6.932,34.662-13.351,41.079-13.351
		c6.42,0,21.825,2.054,20.284,23.278c-1.54,21.227-25.767,22.987-28.737,22.495c-2.971-0.493-8.167-3.466-3.834-6.311
		c4.33-2.844,6.186-6.31,6.186-6.31c-4.083,4.33-10.518,5.445-14.105,5.813c-3.589,0.374-1.002,1.753-1.002,1.753
		c5.754,0.365,7.913,5.395,6.834,11.149c-1.079,5.752-46.031,50.35-46.031,50.35c0,3.232,7.551,2.875,7.551,2.875l48.548-53.583
		c21.938-2.159,27.332-14.741,27.332-14.741c38.479-17.983,26.613-50.351,26.613-50.351c14.385-4.313,12.945-21.218,12.226-35.243
		s5.035-23.374,9.349-30.567C-647.741,95.63-644.146,83.763-661.766,66.861z M-698.877,211.229c0,0,6.161-14.633-7.703-27.73
		c0,0,6.933-4.361,9.243-18.484c0,0,10.269,3.852,15.919,4.107C-681.417,169.122-672.174,197.624-698.877,211.229z
		 M-668.067,118.031c-3.852,11.293,0.771,25.418-1.797,36.971s-26.958,6.417-26.958,6.417c1.797-19.514-16.688-25.673-16.688-25.673
		c13.865-0.769,18.486-12.323,15.919-28.5c-2.569-16.175-18.231-17.972-18.231-17.972c8.988-8.73,6.675-26.446,6.675-26.446
		c18.744-5.393,43.392,1.285,50.582,18.745C-651.379,99.03-664.217,106.733-668.067,118.031z"/>
</g>
</svg>
