<?xml version="1.0" encoding="utf-8"?>
<!-- Generator: Adobe Illustrator 16.0.0, SVG Export Plug-In . SVG Version: 6.00 Build 0)  -->
<!DOCTYPE svg PUBLIC "-//W3C//DTD SVG 1.1//EN" "http://www.w3.org/Graphics/SVG/1.1/DTD/svg11.dtd">
<svg version="1.1" id="Layer_1" xmlns="http://www.w3.org/2000/svg" xmlns:xlink="http://www.w3.org/1999/xlink" x="0px" y="0px"
	 width="300px" height="300px" viewBox="0 0 300 300" enable-background="new 0 0 300 300" xml:space="preserve">
<g>
	<path fill="#77D0E5" d="M233.134,54.329c-17.621-16.901-48.19-8.992-48.19-8.992c-3.955-11.867-39.199-32.364-87.027-10.428
		C45.583,58.91,57.639,88.492,64.83,97.843c7.192,9.351,4.675,13.665,0.72,24.813c-3.956,11.15-0.359,21.578,5.394,28.411
		c5.754,6.829,5.034,10.068,6.114,22.654c1.08,12.589,8.99,21.938,8.99,21.938l-32.005,19.063c-2.052,2.669,3.847,5.801,6.928,4.004
		c3.082-1.799,30.811-17.717,30.811-17.717c17.717,14.378,32.608,14.637,32.608,14.637c-31.581-14.637-40.311-34.664-40.311-48.271
		c0-13.606-5.134-17.201-8.986-23.619c-3.851-6.422-6.676-11.554-1.539-26.19c5.134-14.632,1.539-18.998-2.311-23.364
		c-3.852-4.364-7.446-11.042-5.905-17.459c6.487-27.028,50.067-47.5,84.728-42.108c34.661,5.392,31.061,29.024,26.958,36.205
		c-3.081,5.388-16.688,2.824-32.35,5.646c-45.448,8.197-48.269,21.564-48.269,21.564c5.649-4.62,26.447-14.891,50.581-18.484
		c24.134-3.596,49.038,1.283,46.473,21.826c-2.568,20.538-10.016,14.89-43.393,22.077c-33.377,7.19-37.486,19-37.486,19
		s13.866-9.499,40.824-14.122c26.959-4.621,39.281,4.363,40.053,17.458c0.77,13.097-8.73,23.107-8.73,23.107
		s-6.676-5.903-25.676-0.768c-28.738,7.768-28.498,14.89-28.498,14.89c9.244-6.932,34.662-13.351,41.079-13.351
		c6.42,0,21.825,2.054,20.284,23.278c-1.541,21.227-25.768,22.987-28.738,22.495c-2.971-0.493-8.166-3.466-3.834-6.311
		c4.33-2.844,6.186-6.31,6.186-6.31c-4.082,4.33-10.518,5.445-14.104,5.813c-3.589,0.374-1.002,1.753-1.002,1.753
		c5.754,0.365,7.913,5.395,6.835,11.149c-1.08,5.752-46.032,50.35-46.032,50.35c0,3.232,7.551,2.875,7.551,2.875l48.547-53.583
		c21.938-2.159,27.332-14.741,27.332-14.741c38.479-17.983,26.613-50.351,26.613-50.351c14.385-4.313,12.945-21.218,12.225-35.243
		c-0.719-14.025,5.035-23.374,9.35-30.567C247.158,83.098,250.754,71.23,233.134,54.329z M196.022,198.697
		c0,0,6.161-14.633-7.703-27.73c0,0,6.933-4.361,9.243-18.484c0,0,10.27,3.852,15.919,4.107
		C213.482,156.59,222.725,185.092,196.022,198.697z M226.832,105.499c-3.852,11.293,0.771,25.418-1.797,36.971
		s-26.959,6.417-26.959,6.417c1.797-19.514-16.688-25.673-16.688-25.673c13.865-0.769,18.486-12.323,15.919-28.5
		c-2.569-16.175-18.231-17.972-18.231-17.972c8.988-8.73,6.676-26.446,6.676-26.446c18.744-5.393,43.392,1.285,50.582,18.745
		C243.52,86.498,230.682,94.201,226.832,105.499z"/>
</g>
</svg>
