<?xml version="1.0" encoding="utf-8"?>
<!-- Generator: Adobe Illustrator 16.0.0, SVG Export Plug-In . SVG Version: 6.00 Build 0)  -->
<!DOCTYPE svg PUBLIC "-//W3C//DTD SVG 1.1//EN" "http://www.w3.org/Graphics/SVG/1.1/DTD/svg11.dtd">
<svg version="1.1" id="Layer_1" xmlns="http://www.w3.org/2000/svg" xmlns:xlink="http://www.w3.org/1999/xlink" x="0px" y="0px"
	 width="300px" height="300px" viewBox="0 0 300 300" enable-background="new 0 0 300 300" xml:space="preserve">
<g>
	<path fill="#F9BE70" d="M141.675,253.494c0,0,7.566,0.292,13.679-4.654l-2.037,11.349l-1.602-5.383
		C151.715,254.806,148.951,256.842,141.675,253.494z"/>
	<path fill="#F9BE70" d="M235.481,140.55c-6.017-6.562-13.723-5.305-18.165-3.763c0.184-2.818,0.214-5.13,0.214-6.845
		c0-5.982-7.194-28.628-29.921-18.769c-0.934,0.406-1.812,0.909-2.643,1.485c-0.681-3.275-0.865-8.271,1.935-13.866
		c4.924-9.85,22.468-33.552,24.624-49.25c2.154-15.699-0.924-27.702-3.693-33.859c-2.771-6.156-9.543-13.853-19.699-13.853
		c-10.159,0-22.163,6.772-24.933,24.01c-2.77,17.237-17.546,79.724-25.547,92.651c0,0-8.004-24.931-9.852-44.016
		c-1.846-19.084-4.616-44.633-22.468-61.562c-17.853-16.93-32.935-7.39-38.169-4.311c-5.232,3.079-9.542,11.081-0.615,28.319
		c8.778,16.952,20.53,55.938,29.408,107.572c-9.52,7.888-19.461,21.358-20.927,46.787c-2.371,41.089,24.891,43.46,33.978,55.707
		c9.086,12.25-13.038,42.276-13.038,42.276l2.396,3.521c9.718-11.252,17.133-27.875,18.668-41.173
		c1.533-13.295-8.95-9.461-25.061-26.082c-16.111-16.623-15.09-50.38,0-69.047c15.089-18.669,35.544-23.786,41.427-19.181
		c5.883,4.604,23.783,14.833,34.012,11.507c10.229-3.324,19.18,13.299,3.835,23.528c-19.711,13.144-42.45-5.115-42.45-5.115
		c5.624,16.112-3.07,35.034-3.07,35.034c13.041-6.137,9.75-27.17,9.75-27.17c6.224,4.294,11.84,6.792,16.862,7.974
		c3.204,8.311,9.019,29.632-6.665,47.327c0,0,22.266-10.905,11.214-46.596c1.233,0.106,2.429,0.131,3.581,0.081
		c0.937,2.789,3.252,6.521,8.92,9.722c4.176,2.354,10.268,1.905,16.59-0.745c2.366,4.188,8.888,12.481,22.31,9.174
		c2.73-0.673,5.252-1.644,7.593-2.842c-0.404,9.856-4.554,42.147-41.321,48.813c0,0,3.807,36.99-5.442,51.136l6.803,0.272
		c0,0,8.975-13.054,4.895-47.599c0,0,38.338-1.604,41.188-56.628C240.472,180.213,242.905,148.649,235.481,140.55z M168.661,144.659
		c-14.222,1.977-24.891-5.927-32.398-10.271c-7.506-4.346-16.199-5.137-25.286,0.393c-2.36,1.438-5.769,3.177-9.551,5.673
		c-2.901-14.783-17.54-87.181-29.956-108.151c-12.708-21.46,9.466-22.067,13.237-21.545c8.926,1.23,30.779,18.16,33.857,43.708
		c3.079,25.547,7.389,62.792,18.776,77.568c0,0,8.311-13.234,15.39-37.86c7.08-24.625,14.776-53.251,16.623-65.256
		s7.695-22.777,20.316-19.7c12.619,3.079,19.701,25.239,12.312,45.555c-6.924,19.045-29.534,42.686-25.495,69.402
		c-3.422,8.029-4.528,17.085-4.826,20.317C170.71,144.477,169.721,144.512,168.661,144.659z M166.581,182.827
		c9.025-2.764,14.575-10.312,16.699-16.043c3.201-8.649,0.948-19.112-7.599-21.711c1.099-5.561,5.354-22.87,16.279-26.282
		c13.056-4.081,20.402,6.525,17.139,25.839C205.932,163.367,189.189,200.28,166.581,182.827z M189.762,190.997
		c8.523-4.721,16.87-13.236,20.968-24.337c3.348-9.07,5.044-16.91,5.908-23.216c13.749-4.348,17.711,6.952,16.665,14.513
		c-1.088,7.888-7.07,33.728-24.479,38.353C196.63,199.547,191.654,194.385,189.762,190.997z"/>
</g>
</svg>
