<?xml version="1.0" encoding="utf-8"?>
<!-- Generator: Adobe Illustrator 16.0.0, SVG Export Plug-In . SVG Version: 6.00 Build 0)  -->
<!DOCTYPE svg PUBLIC "-//W3C//DTD SVG 1.1//EN" "http://www.w3.org/Graphics/SVG/1.1/DTD/svg11.dtd">
<svg version="1.1" id="Layer_1" xmlns="http://www.w3.org/2000/svg" xmlns:xlink="http://www.w3.org/1999/xlink" x="0px" y="0px"
	 width="273.619px" height="79.706px" viewBox="0 0 273.619 79.706" enable-background="new 0 0 273.619 79.706"
	 xml:space="preserve">
<g id="header">
	<g>
		<g id="Layer_7">
			<path fill="#FFFFFF" d="M84.198,18.594l0.133,0.303c-0.127-0.17-0.287-0.439-0.46-0.753c0.747,1.57,1.741,3.314,2.768,4.961
				l0.387,0.613l0.193,0.302l0.097,0.149l0.012,0.019l0.005,0.007l0.009,0.012l0.018,0.024c0.099,0.127,0.195,0.241,0.286,0.339
				c0.183,0.198,0.341,0.329,0.464,0.385c0.069,0.128,0.144,0.213,0.196,0.229c0.053,0.016,0.085-0.036,0.093-0.149
				c0.007-0.113-0.01-0.257-0.032-0.383c-0.021-0.127-0.05-0.235-0.086-0.308c-0.012-0.051-0.028-0.098-0.031-0.146
				c-0.015-0.217-0.011-0.371,0.01-0.474c0.005-0.026,0.012-0.048,0.019-0.067c0.004-0.011,0.007-0.019,0.012-0.028l0.003-0.006
				l-0.041-0.079l-0.083-0.163l-0.694-1.337l0.516,1.095c-0.274-0.528-0.545-1.049-0.881-1.619l0.056,0.232
				c-0.896-1.848-2.374-4.231-3.299-5.326c-0.929-1.099-0.959-0.501-0.063,1.345L84.198,18.594z"/>
			<path fill="#FFFFFF" d="M85.508,22.253c-0.551-1.096-1.073-2.154-1.593-3.213l-0.081-0.223l-0.127,0.167l0.022,0.014
				c0.701,0.866,1.681,2.399,2.573,3.817l0.328,0.5c0.167,0.233,0.297,0.378,0.362,0.408c0.151,0.073-0.038-0.421-0.422-1.101
				l-0.442-0.782c-1.018-1.943-2.767-4.914-3.67-5.798c-0.205-0.199-0.167,0.058-0.211,0.154c-0.154-0.006,0.169,0.761,0.718,1.707
				c0.55,0.948,1.111,1.709,1.261,1.708l0.262,0.497l-0.263-0.354c0.253,0.209,0.782,1.056,1.211,1.665l0.594,0.942l-0.061-0.694
				l-0.329-0.479c0.011,0.044,0.038,0.128,0.033,0.121c-0.63-0.908-1.229-1.759-1.888-2.772l-0.867-1.253
				c-0.259-0.326-0.311-0.248-0.127,0.167l0.287,0.613l-0.122-0.281c0.731,1.372,1.53,2.804,2.25,4.164
				c0.111,0.217,0.271,0.464,0.362,0.56C85.647,22.584,85.624,22.477,85.508,22.253z"/>
			<g>
				<path fill="#FFFFFF" d="M82.684,17.551c-0.108-0.229-0.21-0.449-0.397-0.755l-0.099-0.12l0.206,0.45
					C82.542,17.449,82.659,17.591,82.684,17.551z"/>
				<polygon fill="#FFFFFF" points="82.188,16.675 82.102,16.487 82.148,16.62 82.171,16.654 				"/>
				<path fill="#FFFFFF" d="M112.291,11.774c1.724-1.853,3.602-3.588,5.65-5.138c2.048-1.547,4.271-2.905,6.647-3.973
					c0.16-0.071,0.288-0.143,0.288-0.164c0-0.018-0.13,0.022-0.277,0.089c-2.384,1.066-4.608,2.421-6.657,3.964
					c-2.051,1.544-3.93,3.275-5.658,5.128c-0.115,0.126-0.2,0.239-0.201,0.268C112.091,11.969,112.183,11.89,112.291,11.774z"/>
				<path fill="#FFFFFF" d="M146.716,3.523c-0.115-0.024-0.116-0.004-0.007,0.047c0.094,0.045,0.267,0.108,0.379,0.132
					c0.097,0.022,0.101-0.001,0.008-0.046C146.987,3.604,146.813,3.543,146.716,3.523z"/>
				<path fill="#FFFFFF" d="M145.283,4.587c-0.635-0.17-1.243-0.308-1.792-0.395c-0.103-0.019-0.215-0.047-0.297-0.076
					c0.03,0.039-0.098,0.033-0.33-0.006c-2.282-0.402-4.669-0.59-7.058-0.44c-2.39,0.144-4.774,0.631-7.021,1.451
					c-0.023,0.033-0.075,0.076-0.169,0.132c-0.29,0.176-0.896,0.436-1.534,0.688l-0.483,0.187c-1.937,0.802-3.779,1.846-5.518,3.05
					c-0.33,0.282-0.717,0.602-1.14,0.947c-1.375,1.212-2.664,2.53-3.904,3.946c0.096-0.072,0.164-0.107,0.182-0.087
					c0.022,0.07-0.242,0.417-0.584,0.792l-0.506,0.574c0.496-0.542,1.005-1.071,1.526-1.581c0.073-0.075,0.145-0.141,0.211-0.201
					c0.563-0.568,1.146-1.128,1.751-1.679c2.641-2.407,5.497-4.381,8.558-5.764c3.055-1.386,6.317-2.163,9.642-2.27
					c0.109-0.009,0.28-0.006,0.376,0.013c0.065,0.017,0.052,0.039-0.069,0.044c-2.094,0.121-4.001,0.514-5.883,1.119
					c-1.882,0.61-3.743,1.434-5.738,2.573c-2.373,1.362-4.538,3.065-6.52,5.005c-1.981,1.941-3.784,4.119-5.422,6.479
					c-0.378,0.512-0.741,1.029-1.089,1.55l-0.26,0.392L111.97,21.4l-0.25,0.393c-0.331,0.526-0.653,1.06-0.966,1.61
					c-0.313,0.55-0.619,1.111-0.915,1.713l-0.885,1.859l-1.789,3.793l-0.17-0.216l-0.079-0.099c-0.026-0.032-0.05-0.06-0.082-0.108
					l-0.353-0.512l-0.708-1.026l-1.427-2.062l-2.898-4.191l-0.738-1.064l-0.29-0.415l-0.197-0.279l-0.792-1.123l-0.399-0.566
					c-0.119-0.168-0.322-0.46-0.282-0.392l-0.073-0.063c-0.084-0.068-0.14-0.104-0.18-0.124c-0.027,0.119-0.043,0.201-0.053,0.262
					l-0.008,0.042l-0.001,0.01l-0.11,0.264l-0.249,0.592l-0.997,2.366l-2.145,5.06l-4.032,9.445
					c-0.484,1.157-0.967,2.28-1.427,3.324c-1.248-2.163-2.363-4.194-3.166-5.757c-0.805-1.567-1.296-2.664-1.373-3.097
					c-0.054-0.318,0.121-0.243,0.451,0.115c0.33,0.358,0.813,0.997,1.397,1.838l-0.668-1.139l-1.034-1.842
					c-0.486-0.867-0.921-1.674-1.283-2.375c-0.181-0.352-0.344-0.677-0.485-0.972c-0.042-0.084-0.055-0.12-0.074-0.167l-0.052-0.131
					c-0.033-0.086-0.063-0.168-0.09-0.245l-0.308-0.836c-0.331-1.158-1.071-2.915-1.282-3.897l0.211,0.124l-0.085-0.211
					c-0.303-0.687-0.459-1.177-0.441-1.388l0.161-0.012c0.222,0.05,0.545,0.291,0.977,0.732c0.042-0.049,0.131-0.018,0.259,0.087
					c-0.131-0.515-0.12-0.802,0.233-0.542c-0.12-0.286-0.039-0.274,0.178,0.022c0.075,0.103,0.158,0.23,0.24,0.362l-0.002-0.003
					c-0.053-0.165-0.069-0.213-0.148-0.431l-0.226-0.425l-0.726-1.331c-0.265-0.547-0.393-0.905-0.393-0.905
					c-0.118-0.709-0.118-0.709,0.031-0.676c0.029,0.029,0.061,0.061,0.093,0.096l-0.32-0.645C81.49,16.101,81.458,16,81.458,16
					c0.04-0.051,0.04-0.051,0.012-0.14c0.005-0.038,0.028-0.043,0.028-0.043c0.209,0.225,0.209,0.225,0.23,0.222
					c0.052,0.052,0.114,0.128,0.114,0.128l0.306,0.458l0.25,0.728l0.13,0.113l0.027,0.188l0.006-0.119l0.16,0.348l-0.172-0.403
					c0.437,0.786,0.437,0.786,0.622,1.095c0.183,0.326,0.359,0.594,0.38,0.626c0.001-0.037,0.013-0.046,0.013-0.046l0.92,1.662
					c0.032,0.082,0.055,0.148,0.074,0.211c0.062,0.069,0.162,0.218,0.252,0.379l0.24,0.43l0.062,0.087
					c0.002-0.002,0.003-0.004,0.003-0.004l0.238,0.342l0.049,0.07l0.002,0.005l1.029,1.479l0.203,0.371l0.095,0.177l0.046,0.087
					c0.015,0.028,0.032,0.062,0.037,0.069c-0.002-0.012-0.026-0.063-0.041-0.096l-0.047-0.107c-0.059-0.144,0.061-0.052,0.023-0.126
					c-0.938-1.832-2.034-3.784-3.099-5.717c-0.207-0.337-0.367-0.674-0.356-0.748c0.015-0.068,0.196,0.152,0.407,0.499
					c0.626,0.91,1.265,1.883,1.903,2.894c0.319,0.506,0.639,1.021,0.957,1.543l0.476,0.787l0.425,0.714
					c0.381,0.646,0.719,1.354,1.149,2.315l0.031-0.045c0.176-0.333,0.364-0.705,0.559-1.1c-0.014,0.009-0.028,0.016-0.042,0.023
					l0.167-0.277l0.017-0.034c-0.059,0.049-0.115,0.09-0.168,0.125l-0.086,0.122c-0.176,0.363-0.346,0.66-0.497,0.889
					c-0.261-0.569-0.47-1.079-0.65-1.503c-0.085-0.2-0.149-0.385-0.198-0.548l-0.034-0.12L87.7,23.981l-0.001-0.007l-0.013-0.027
					l-0.028-0.056l-0.114-0.225l-0.469-0.911c-0.178-0.311-0.271-0.543-0.212-0.529c0.056,0.015,0.251,0.287,0.424,0.591
					l0.548,0.899l0.068,0.114l0.015,0.024l0.006,0.009l0.023,0.036l0.046,0.069c0.06,0.093,0.117,0.189,0.172,0.29
					c0.112,0.204,0.219,0.435,0.35,0.744c0.136-0.166,0.308-0.318,0.554-0.532c0.044-0.099,0.091-0.189,0.146-0.274
					c0.026-0.042,0.055-0.084,0.085-0.125l0.046-0.059l0.025-0.029l0.012-0.014c0.002-0.004,0.002-0.002,0.008-0.011l0.015-0.028
					l0.017-0.035l-0.037,0.056c-0.01,0.017-0.013,0.012-0.02,0.02l-0.034,0.022l-0.065,0.043c0.021-0.035,0.042-0.065,0.065-0.093
					l0.171-0.311c0.116-0.207,0.23-0.406,0.356-0.666l-0.193,0.149c0.648-1.42,1.296-2.907,1.945-4.364
					c0.324-0.729,0.647-1.45,0.972-2.15l0.733-1.611l0.777-1.673l0.228-0.504c0.764-1.996,1.582-4.113,2.584-6.48L95.877,8.63
					c0.44-1.107,0.887-2.216,1.352-3.337c0.409,0.59,0.829,1.202,1.26,1.842c1.53,2.269,3.145,4.741,4.493,6.886l0.493,0.79
					c0.152,0.245,0.347,0.555,0.399,0.657c0.168,0.294,0.326,0.578,0.47,0.846c0.288,0.535,0.524,1.009,0.689,1.393l0.307,0.443
					l0.178,0.255l0.352,0.502l0.348,0.495l0.172,0.244l0.084,0.122l0.021,0.03c0.006-0.003,0.011-0.021,0.017-0.031l0.034-0.071
					c0.155-0.325,0.323-0.64,0.494-0.944c0.087-0.153,0.174-0.303,0.264-0.451l0.135-0.22l0.068-0.11l0.182-0.278
					c1.098-1.665,2.284-3.271,3.563-4.811c0.208-0.252,0.42-0.456,0.485-0.475c0.048-0.002-0.069,0.182-0.277,0.432
					c-1.265,1.56-2.446,3.191-3.543,4.882l-0.204,0.318l-0.031,0.05l-0.021,0.033l-0.039,0.065l-0.153,0.263
					c-0.103,0.177-0.205,0.359-0.307,0.544c-0.202,0.371-0.402,0.757-0.589,1.159l-0.034,0.076c-0.013,0.021-0.021,0.072-0.038,0.03
					l-0.089-0.123l-0.181-0.249l0.18,0.288l0.091,0.145c0.018,0.045,0.027-0.004,0.039-0.021l0.037-0.067
					c0.319-0.588,0.699-1.19,1.117-1.805l0.501-0.73c0.237-0.343,0.479-0.684,0.726-1.023c0.492-0.677,1-1.347,1.526-2.008
					c0.303-0.393,0.614-0.784,0.933-1.171c0.314-0.384,0.643-0.75,0.98-1.107c1.661-1.861,3.432-3.555,5.362-5.096
					c1.931-1.538,4.025-2.926,6.356-4.104c1.992-1.004,3.977-1.748,6.022-2.277c2.047-0.524,4.158-0.835,6.412-0.898
					c3.167-0.085,6.189,0.338,9.068,1.113c2.881,0.779,5.626,1.909,8.302,3.347c0.717,0.374,1.33,0.805,1.366,0.931
					c0.037,0.128-0.505-0.096-1.215-0.473c-2.793-1.446-5.733-2.642-8.809-3.442c-3.072-0.8-6.286-1.195-9.509-1.036
					c-3.221,0.152-6.432,0.867-9.444,2.091c-3.018,1.221-5.834,2.929-8.413,4.965c-1.114,0.878-2.158,1.802-3.15,2.762
					c0.021-0.004,0.042-0.007,0.051,0.002c0.035,0.036-0.028,0.159-0.157,0.342c1.118-1.091,2.31-2.127,3.574-3.087
					c1.702-1.4,3.542-2.666,5.554-3.723c2.011-1.056,4.2-1.9,6.544-2.418c3.224-0.705,6.253-0.727,9.232-0.331
					c3.804,0.329,7.498,1.368,10.986,2.892c0.14,0.056,0.28,0.13,0.322,0.169c0.042,0.04-0.04,0.021-0.181-0.037
					c-2.424-0.982-4.994-1.806-7.664-2.308c0.406,0.146,0.635,0.279,0.583,0.349c-0.051,0.074-0.388,0.068-0.889,0.016
					c0.594,0.126,1.184,0.271,1.769,0.43c0.361,0.102,0.634,0.214,0.613,0.251c-0.02,0.041-0.314-0.012-0.657-0.105
					c-2.375-0.645-4.828-1.031-7.298-1.081c-2.967-0.01-5.921,0.465-8.726,1.408c0.407-0.074,0.715-0.093,0.874-0.059
					c0,0,0,0,0,0.001c0.437-0.127,0.875-0.245,1.315-0.35c2.008-0.529,4.099-0.815,6.208-0.846c2.11-0.032,4.234,0.191,6.316,0.634
					c4.172,0.886,8.147,2.629,11.809,4.835c0.145,0.085,0.255,0.169,0.247,0.188c-0.008,0.018-0.126-0.035-0.256-0.113
					c-2.208-1.333-4.525-2.494-6.935-3.404l0.009,0.005c0.093,0.048,0.104,0.075-0.008,0.047c-0.096-0.025-0.286-0.095-0.377-0.142
					c-0.106-0.054-0.089-0.07,0.006-0.047c-2.254-0.822-4.59-1.42-6.957-1.718c-2.364-0.301-4.756-0.298-7.083,0.03
					c2.167-0.26,4.365-0.245,6.527,0.024c2.164,0.268,4.289,0.786,6.338,1.497c0.457,0.128,0.909,0.265,1.367,0.415
					c0.124,0.043,0.28,0.115,0.322,0.151c0.028,0.027-0.067,0.011-0.195-0.033l-0.379-0.124c0.767,0.294,1.319,0.616,1.268,0.701
					c-0.081,0.077-0.755-0.122-1.546-0.418c-2.129-0.765-4.317-1.34-6.545-1.666c-0.242-0.029-0.485-0.057-0.726-0.08
					c-0.246-0.015-0.489-0.025-0.733-0.033c3.478,0.375,6.847,1.409,9.994,2.836c0.272,0.117,0.492,0.248,0.482,0.282
					c-0.008,0.035-0.238-0.037-0.511-0.154c-2.81-1.148-5.76-1.996-8.777-2.372c-3.015-0.379-6.091-0.27-9.056,0.387
					c-1.92,0.557-3.76,1.339-5.517,2.322l0.7-0.308c2.985-1.283,5.922-2.04,8.914-2.292c2.987-0.25,6.027,0.007,9.136,0.853
					c0.157,0.04,0.281,0.094,0.296,0.116c0.012,0.023-0.099,0.007-0.254-0.037c-1.516-0.407-2.995-0.667-4.473-0.808
					c-1.479-0.139-2.96-0.157-4.485-0.052c-2.528,0.177-4.887,0.72-7.06,1.57c2.251-0.778,4.551-1.261,6.885-1.423
					c2.333-0.163,4.697-0.005,7.05,0.469c0.207,0.038,0.41,0.094,0.536,0.143c0.013-0.006,0.057-0.006,0.121,0.004
					c0.596,0.093,1.239,0.233,1.891,0.402c0.125,0.03,0.278,0.085,0.337,0.125C145.502,4.628,145.421,4.621,145.283,4.587z
					 M88.587,28.833l-0.045-0.115l0.155,0.332l0.098,0.284c0.026-0.012,0.063-0.027,0.113-0.053l-0.11,0.104L88.587,28.833z
					 M85.334,24.365l0.003,0.003l-0.109-0.343L85.334,24.365z M107.078,19.6c-0.171,0.298-0.335,0.595-0.487,0.891l-0.038,0.075
					l-0.02,0.039l-0.005,0.009c0,0.005-0.003,0.006-0.005,0l-0.013-0.019l-0.098-0.151l-0.194-0.303l-0.379-0.604
					c-0.249-0.4-0.486-0.796-0.704-1.177l0.496,0.69l0.473,0.776l0.246,0.405l0.125,0.208l0.031,0.052
					c0.005,0.007,0.011,0.02,0.016,0.023l0.012-0.023l0.05-0.089C106.735,20.138,106.901,19.872,107.078,19.6z M87.149,25.331
					c0.142,0.387,0.251,0.755,0.372,1.145c0.146,0.215,0.293,0.45,0.439,0.706c0.263,0.46,0.524,0.922,0.786,1.395l0.307-0.654
					c-0.053-0.006,0.02-0.161,0.054-0.256l0.106-0.28l-0.48,0.978l-0.588-1.117C87.799,26.586,87.431,25.92,87.149,25.331z
					 M82.67,18.128l-0.041-0.107l0.191,0.175L82.67,18.128z M82.362,17.856l0.087,0.168C82.391,17.981,82.368,17.923,82.362,17.856z
					 M83.165,19.403c-0.035-0.099-0.056-0.159-0.09-0.232L83.165,19.403z M81.875,21.599l0.671,0.392l-0.689-0.452L81.875,21.599z"
					/>
			</g>
		</g>
		<g id="Layer_6">
			<path fill="#FFFFFF" d="M130.024,18.902l-1.921-6.685h1.589l1.162,4.557l1.16-4.557h1.451l-1.921,6.685v3.314h-1.521
				L130.024,18.902L130.024,18.902z"/>
			<path fill="#FFFFFF" d="M133.742,14.618c0-1.601,0.816-2.515,2.309-2.515s2.309,0.915,2.309,2.515v5.199
				c0,1.601-0.816,2.514-2.309,2.514s-2.309-0.914-2.309-2.514V14.618z M135.263,19.917c0,0.714,0.305,0.986,0.788,0.986
				c0.483,0,0.788-0.271,0.788-0.986v-5.4c0-0.714-0.304-0.986-0.788-0.986c-0.483,0-0.788,0.272-0.788,0.986V19.917z"/>
			<path fill="#FFFFFF" d="M140.793,12.218v7.713c0,0.714,0.304,0.972,0.788,0.972c0.484,0,0.788-0.258,0.788-0.972v-7.713h1.438
				v7.613c0,1.601-0.774,2.514-2.267,2.514s-2.267-0.914-2.267-2.514v-7.613H140.793z"/>
			<path fill="#FFFFFF" d="M146.197,14.975v7.242h-1.368v-9.999h1.908l1.563,5.985v-5.985h1.355v9.999h-1.563L146.197,14.975z"/>
			<path fill="#FFFFFF" d="M153.027,16.646h2.128v3.171c0,1.601-0.774,2.514-2.267,2.514s-2.268-0.914-2.268-2.514v-5.199
				c0-1.6,0.775-2.515,2.268-2.515c1.493,0,2.267,0.915,2.267,2.515v0.971h-1.437v-1.071c0-0.714-0.305-0.986-0.788-0.986
				s-0.788,0.272-0.788,0.986v5.399c0,0.714,0.305,0.971,0.788,0.971s0.788-0.257,0.788-0.971v-1.843h-0.691V16.646L153.027,16.646z
				"/>
		</g>
		<g id="Layer_5">
			<path fill="#FFFFFF" d="M121.233,27.028l-0.396,3.819h-1.496l-0.773-7.167h1.06l0.585,5.652l0.526-5.652h1.049l0.545,5.693
				l0.564-5.693h0.951l-0.773,7.167h-1.447L121.233,27.028z"/>
			<path fill="#FFFFFF" d="M125.484,26.701h1.497v1.024h-1.497v2.1h1.883v1.024h-2.973v-7.167h2.973v1.024h-1.883V26.701
				L125.484,26.701z"/>
			<path fill="#FFFFFF" d="M131.302,25.329v0.256c0,0.738-0.218,1.208-0.704,1.444c0.584,0.236,0.813,0.779,0.813,1.536v0.584
				c0,1.106-0.564,1.699-1.655,1.699h-1.715v-7.167h1.646C130.815,23.681,131.302,24.223,131.302,25.329z M129.131,24.705v1.894
				h0.426c0.406,0,0.655-0.184,0.655-0.757v-0.399c0-0.511-0.168-0.736-0.555-0.736L129.131,24.705L129.131,24.705z M129.131,27.623
				v2.202h0.624c0.367,0,0.565-0.174,0.565-0.707v-0.625c0-0.665-0.208-0.871-0.704-0.871H129.131z"/>
			<path fill="#FFFFFF" d="M134.374,28.77l0.743-5.09h1.516v7.167h-1.031v-5.14l-0.752,5.14h-1.031l-0.813-5.067v5.067h-0.951
				v-7.167h1.516L134.374,28.77z"/>
			<path fill="#FFFFFF" d="M140.953,30.847h-1.1l-0.188-1.301h-1.338l-0.188,1.301h-1.001l1.109-7.167h1.596L140.953,30.847z
				 M138.465,28.575h1.051l-0.525-3.625L138.465,28.575z"/>
			<path fill="#FFFFFF" d="M142.925,23.597c1.061,0,1.606,0.656,1.606,1.803v0.226h-1.03v-0.297c0-0.512-0.198-0.707-0.545-0.707
				s-0.545,0.195-0.545,0.707c0,1.474,2.131,1.751,2.131,3.799c0,1.146-0.555,1.802-1.625,1.802c-1.069,0-1.625-0.655-1.625-1.802
				v-0.441h1.03v0.512c0,0.513,0.218,0.697,0.565,0.697c0.347,0,0.565-0.184,0.565-0.697c0-1.475-2.131-1.75-2.131-3.799
				C141.32,24.253,141.865,23.597,142.925,23.597z"/>
			<path fill="#FFFFFF" d="M144.848,23.681h3.37v1.024h-1.14v6.143h-1.09v-6.143h-1.14V23.681L144.848,23.681z"/>
			<path fill="#FFFFFF" d="M149.783,26.701h1.496v1.024h-1.496v2.1h1.883v1.024h-2.973v-7.167h2.973v1.024h-1.883V26.701z"/>
			<path fill="#FFFFFF" d="M154.619,30.847c-0.059-0.184-0.1-0.296-0.1-0.88v-1.125c0-0.665-0.217-0.911-0.713-0.911h-0.376v2.917
				h-1.09v-7.167h1.644c1.131,0,1.617,0.542,1.617,1.648v0.563c0,0.737-0.229,1.218-0.715,1.454
				c0.547,0.235,0.723,0.778,0.723,1.525v1.106c0,0.348,0.012,0.604,0.119,0.869L154.619,30.847L154.619,30.847z M153.43,24.705
				v2.201h0.426c0.406,0,0.654-0.184,0.654-0.757v-0.707c0-0.511-0.169-0.737-0.555-0.737H153.43L153.43,24.705z"/>
		</g>
		<g id="Layer_4">
			<path fill="#FFFFFF" d="M142.78,36.958v0.951c0,1.148-0.555,1.803-1.625,1.803c-1.07,0-1.625-0.655-1.625-1.803v-3.727
				c0-1.147,0.555-1.803,1.625-1.803s1.625,0.656,1.625,1.803v0.697h-1.03v-0.768c0-0.512-0.218-0.707-0.565-0.707
				s-0.565,0.195-0.565,0.707v3.871c0,0.512,0.218,0.696,0.565,0.696s0.565-0.185,0.565-0.696v-1.024H142.78L142.78,36.958z"/>
			<path fill="#FFFFFF" d="M146.972,39.63h-1.1l-0.188-1.3h-1.336l-0.189,1.3h-1l1.109-7.168h1.596L146.972,39.63z M144.485,37.357
				h1.05l-0.525-3.625L144.485,37.357z"/>
			<path fill="#FFFFFF" d="M149.787,37.551l0.743-5.089h1.516v7.168h-1.03V34.49l-0.752,5.141h-1.031l-0.813-5.069v5.069h-0.951
				v-7.168h1.516L149.787,37.551z"/>
			<path fill="#FFFFFF" d="M156.069,34.234v0.932c0,1.146-0.536,1.771-1.625,1.771h-0.515v2.693h-1.091v-7.168h1.606
				C155.535,32.462,156.069,33.087,156.069,34.234z M153.929,33.486v2.426h0.515c0.348,0,0.535-0.163,0.535-0.676v-1.075
				c0-0.512-0.188-0.675-0.535-0.675H153.929z"/>
		</g>
		<g id="Layer_3">
			<path fill="#FFFFFF" d="M181.87,12.777h3.542v1.077h-1.198v6.459h-1.146v-6.459h-1.198L181.87,12.777L181.87,12.777z"/>
			<path fill="#FFFFFF" d="M187.059,20.314h-1.147v-7.537h1.147v3.23h1.303v-3.23h1.166v7.537h-1.166v-3.229h-1.303V20.314z"/>
		</g>
		<g id="Layer_2_1_">
			<g>
				<path fill="#FFFFFF" d="M158.287,15.823c3.307,0,4.045-1.605,4.706-3.447h2.879v27.418h-4.278V18.878h-3.307V15.823
					L158.287,15.823z"/>
				<path fill="#FFFFFF" d="M174.391,15.979c-1.361,0-2.217,0.744-2.217,2.703v2.937h-4.045v-2.664c0-4.386,2.176-6.893,6.379-6.893
					c4.201,0,6.379,2.507,6.379,6.893c0,8.617-8.519,11.83-8.519,16.333c0,0.196,0,0.392,0.039,0.587h8.091v3.917h-12.369v-3.368
					c0-8.068,8.479-9.401,8.479-17.312C176.607,16.645,175.752,15.979,174.391,15.979z"/>
			</g>
			<g>
				<path fill="#FFFFFF" d="M161.647,23.224c0.572-0.03,1.146-0.044,1.72-0.044c0.856,0,1.711,0.033,2.559,0.098V12.331h-2.877
					c-0.662,1.841-1.401,3.447-4.707,3.447v3.055h3.306V23.224z"/>
				<path fill="#FFFFFF" d="M172.229,18.637c0-1.958,0.857-2.702,2.217-2.702c1.361,0,2.218,0.665,2.218,3.133
					c0,2.542-0.876,4.404-2.063,6.029c1.256,0.439,2.484,0.951,3.682,1.532c1.482-2.054,2.66-4.512,2.66-7.718
					c0-4.387-2.178-6.893-6.379-6.893s-6.38,2.506-6.38,6.893v2.663h4.046V18.637L172.229,18.637z"/>
			</g>
		</g>
	</g>
	<g>
		<path fill="#FFFFFF" d="M0.146,38.777l27.002,1.299l3.554,3.201l0.058,22.044l-17.943-1.902l2.797,15.37L4.166,79.242L0,74.5
			L0.146,38.777z M0.903,74.561l3.67,4.047l9.991-0.362l-2.563-3.02L0.903,74.561z M12.087,53.906v-3.231l-2.825-2.838l0.175,6.19
			L12.087,53.906z M9.524,47.263l2.941,2.989l5.739-0.754v-3.231L9.524,47.263z M9.612,59.645l2.768,2.989l17.245,1.993
			l-3.233-3.533L9.612,59.645z M9.612,60.52l2.622,14.071l2.563,3.021l-2.592-14.254l-0.029,0.031L9.612,60.52z M12.671,50.827
			v3.049l5.534-0.302v-3.472L12.671,50.827z M26.943,60.822l3.176,3.442V43.73l-3.176-3.02V60.822z"/>
		<path fill="#FFFFFF" d="M57.736,77.875l-7.293-0.167l-2.684-3.281l-0.092-3.282l-4.06,0.214l0.023,6.777l-8.234,0.19l-3.257-3.447
			l0.711-27.344l21.078-0.404l2.914,3.4L57.736,77.875z M32.782,74.878l2.867,2.972l7.248-0.165l-3.028-2.974L32.782,74.878z
			 M40.259,74.451l2.89,2.829v-5.968L40.144,69.1L40.259,74.451z M40.763,68.958l2.706,1.926l4.197-0.214l-0.046-2.044
			L40.763,68.958z M41.107,62.896c0.26-0.032,0.631-0.051,1.112-0.059c0.482-0.008,0.998-0.02,1.548-0.036l-0.046-5.707
			l-2.706-2.925L41.107,62.896z M41.314,53.813l2.684,2.924l2.591-0.475l-0.114-1.736L41.314,53.813z M46.635,56.761l-2.454,0.428
			l0.045,5.611c0.581-0.016,1.132-0.032,1.652-0.048c0.52-0.015,0.91-0.039,1.169-0.07L46.635,56.761z M50.718,77.209l6.353,0.166
			l-2.294-2.448l-6.307-0.404L50.718,77.209z M56.382,50.483l-2.454-2.758l1.147,26.844l2.225,2.354L56.382,50.483z"/>
		<path fill="#FFFFFF" d="M59.128,49.953l21.592-0.042l2.786,2.91l-0.412,25.358l-20.952-0.706l-3.118-3.146L59.128,49.953z
			 M59.665,74.327l2.683,2.762l19.92,0.62l-2.167-3.296L59.665,74.327z M66.146,56.374l-0.248,11.684l3.014-0.021l-0.124-8.303
			L66.146,56.374z M66.374,55.988l2.89,3.531h4.355l0.062-3.252L66.374,55.988z M69.202,59.947l0.124,8.088l4.169-0.063l0.125-8.024
			H69.202z M80.348,74.049l2.25,3.424l0.496-24.503l-2.477-2.375L80.348,74.049z"/>
		<path fill="#FFFFFF" d="M90.725,65.023L83.86,53.382l6.507-1.696l3.987,2.183l1.186,4.037l2.482-6.61l6.752,2.301l1.993,2.983
			l-7.147,10.333l0.884,11.64L90.63,78.28l-1.71-3.1L90.725,65.023z M89.652,75.18l1.487,2.613l8.481,0.214l-2.426-3.47
			L89.652,75.18z M94.731,59.563l0.414-1.033l-1.335-4.192l-2.916-1.677L94.731,59.563z M97.345,65.412l-0.076,8.579l2.52,3.567
			l-0.809-10.645L97.345,65.412z M97.721,64.769l1.504,1.813l6.752-10.04l-1.448-2.573L97.721,64.769z"/>
		<path fill="#FFFFFF" d="M106.302,59.168l-0.347-4.35l10.338-0.325l2.196,1.866v4.125h-2.609l-0.016,9.982l0.313-0.034l1.783,1.574
			l-0.016,4.879l-9.958,0.856l-1.668-2.945l0.248-4.143l2.362-0.309l-0.231-9.296h-1.404L106.302,59.168z M106.714,74.816
			l1.388,2.447l9.198-0.667l-1.569-1.78H106.714z M106.73,59.168l0.793,1.574l1.172-0.034l-0.034-1.54H106.73z M114.229,70.656
			l1.305-0.137l0.017-10.05l-1.404-1.267L114.229,70.656z M114.361,58.894l1.371,1.25h2.13l-1.552-1.37L114.361,58.894z
			 M116.061,74.678l1.52,1.713l0.049-4.247l-1.47-1.266L116.061,74.678z M116.292,54.974l0.116,3.39l1.751,1.574v-3.287
			L116.292,54.974z"/>
		<path fill="#FFFFFF" d="M131.716,76.596l-2.164-2.894l-2.922-4.914l0.677,9.553l-7.151,0.53l-1.47-2.447l0.512-21.263l6.622,0.599
			l2.362,2.276l1.288,3.612l-0.33-7.48l7.415,0.068l2.147,2.62l-0.562,20.373L131.716,76.596z M119.067,76.39l1.288,2.055
			l6.622-0.479l-1.899-2.517L119.067,76.39z M124.681,65.708l0.627,9.484l1.519,1.985l-0.561-8.971L124.681,65.708z M129.521,62.712
			l-1.602-4.4l-1.751-1.729l3.519,9.569L129.521,62.712z M132.014,76.27l5.681,0.548l-1.271-2.38l-6.11-0.308L132.014,76.27z
			 M138.339,56.994l-1.783-2.226L136.44,73.72l1.354,2.551L138.339,56.994z"/>
		<path fill="#FFFFFF" d="M139.841,54.819l15.523-0.65l3.022,2.038l0.133,6.745l-11.33-0.514l0.727,7.31h2.956l-0.132-1.626
			l-1.173,0.104l-1.454-1.558l-0.132-3.391l8.191,0.274l2.229,1.867l0.248,12.326l-15.523-0.702l-3.302-2.379L139.841,54.819z
			 M140.254,74.558l2.907,2.089l14.896,0.719l-1.933-2.328L140.254,74.558z M145.704,69.748h1.866l-0.71-7.43l-1.305-1.438
			L145.704,69.748z M145.819,60.674l1.255,1.387l10.816,0.599l-2.08-1.729L145.819,60.674z M148.907,66.667l0.941,1.198l0.875-0.085
			l-0.083-1.112L148.907,66.667L148.907,66.667z M155.529,54.888l0.629,5.89l1.948,1.609l-0.05-5.957L155.529,54.888z
			 M156.174,63.997l0.133,10.717l1.98,2.379l-0.215-11.539L156.174,63.997z"/>
		<path fill="#FFFFFF" d="M180.014,75.849l-17.463,2.389l-2.174-2.543l-0.521-7.28l11.389,0.77l-0.111-1.021l-9.567-1.155
			l-1.3-1.906l0.482-11.402l17.371-1.444l2.75,2.003l-0.874,6.029l-11.425-0.116l-0.02,1.021l9.346,0.79l2.471,2.195L180.014,75.849
			z M160.766,65.102l1.041,1.464l9.271,1.194l-0.131-1.329L160.766,65.102z M162.791,77.813l16.684-2.291l-1.803-1.156
			c-0.21,0.025-0.578,0.062-1.104,0.106c-0.526,0.044-1.152,0.099-1.877,0.163s-1.52,0.132-2.388,0.201
			c-0.867,0.07-1.755,0.142-2.666,0.213c-0.91,0.07-1.814,0.145-2.713,0.222s-1.733,0.145-2.508,0.202s-1.464,0.112-2.07,0.163
			c-0.607,0.051-1.071,0.09-1.394,0.115L162.791,77.813z M167.102,61.057l1.078,0.097l0.037-1.079l-1.264-1.098L167.102,61.057z
			 M167.287,58.765l1.171,1.021l10.757,0.039l-1.318-1.348L167.287,58.765z M179.697,75.251l0.298-10.901l-2.099-1.791v11.517
			L179.697,75.251z M178.193,58.227l1.375,1.406l0.891-5.22l-2.266-1.637V58.227L178.193,58.227z"/>
		<path fill="#FFFFFF" d="M207.885,77.793l-9.145-0.472l-2.168-3.081l-0.186-6.142l-4.664-0.042l0.64,10.271h-6.812l-2.912-2.782
			l-0.805-25.872l7.122,0.514l2.767,2.204v6.634l4.85,0.063l-1.259-7.125l7.845-0.557l2.746,2.997h0.041L207.885,77.793z
			 M183.196,75.526l2.581,2.418l5.903-0.063l-2.786-2.525L183.196,75.526z M189.142,58.984l2.169,0.043v-6.356l-2.354-1.926
			L189.142,58.984z M189.266,65.618l0.207,9.651l2.496,2.289l-0.66-9.63L189.266,65.618z M189.514,65.276l2.084,2.354l4.789,0.043
			l-0.062-2.14L189.514,65.276z M199.029,76.896l7.906,0.47l-2.374-2.375l-7.39-0.556L199.029,76.896z M205.531,54.64l-2.333-2.568
			l1.796,22.769l2.312,2.312L205.531,54.64z"/>
		<path fill="#FFFFFF" d="M208.812,48.035l8.83-0.144l2.614,3.043l0.734,16.597l6.445-0.5l-1.216-19.806l8.647,0.38l3.531,2.355
			l0.688,29.197l-25.758,0.548l-2.66-2.948L208.812,48.035z M211.449,76.71l2.133,2.52l24.839-0.5l-3.188-3.566L211.449,76.71z
			 M218.123,67.888l2.409-0.309l-0.733-16.121l-2.134-2.782L218.123,67.888z M234.867,48.32l0.596,26.44l3.05,3.353l-0.573-27.891
			L234.867,48.32z"/>
		<path fill="#FFFFFF" d="M240.472,39.352c0.311,0.041,0.907,0.066,1.791,0.075c0.883,0.01,1.946,0.005,3.189-0.015
			c1.243-0.02,2.607-0.05,4.093-0.091c1.485-0.04,2.976-0.09,4.472-0.15c3.515-0.121,7.407-0.282,11.681-0.483l4.835,5.044
			l2.593,10.055l-5.854,6.16l5.213,7.489l1.107,2.838l0.028,0.062l-5.098,7.972l-23.448,0.755l-3.961-4.379L240.472,39.352z
			 M241.753,74.682l3.582,3.774l22.283-0.725l-2.184-3.292L241.753,74.682z M250.754,53.816l2.301-0.242l-0.902-3.865l-2.214-2.053
			L250.754,53.816z M250.113,47.021l2.651,2.446l4.106-0.211l-0.117-2.506L250.113,47.021z M250.142,68.673h3.059l0.088-4.802
			l-2.826-2.627L250.142,68.673z M250.958,60.912l2.709,2.506l4.224-0.091l-1.544-2.234L250.958,60.912z M252.764,50.071
			l0.874,3.442l4.049-0.422L256.9,49.86L252.764,50.071z M258.299,63.932l-4.429,0.09l-0.087,4.651h5.593L258.299,63.932z
			 M264.299,57.531l2.417,2.144l5.535-5.828l-3.35-2.929L264.299,57.531z M265.958,74.199l2.186,3.262l4.777-7.126l-2.243-3.714
			L265.958,74.199z M266.047,39.925l2.941,10.297l3.232,2.809l-2.213-8.817L266.047,39.925z"/>
	</g>
</g>
</svg>
